<svg width="169" height="169" viewBox="0 0 169 169" fill="none" xmlns="http://www.w3.org/2000/svg">
<g filter="url(#filter0_d)">
<circle cx="83.5" cy="83.5" r="80.5" fill="white"/>
</g>
<path d="M104.04 43.52C108.947 43.52 111.4 47.2 111.4 54.56C111.4 59.2533 110.12 64.6667 107.56 70.8C103.827 79.7067 98.76 86.56 92.36 91.36C89.9067 93.1733 87.4 94.56 84.84 95.52C82.28 102.133 79.0533 106.96 75.16 110C80.4933 113.947 84.36 116.507 86.76 117.68C89.16 118.907 91.48 119.52 93.72 119.52C97.6133 119.52 100.173 118.16 101.4 115.44C101.773 114.587 101.96 113.787 101.96 113.04C101.96 112.293 101.747 111.653 101.32 111.12C100.947 110.64 100.493 110.4 99.96 110.4C100.12 109.76 100.52 109.44 101.16 109.44C102.973 109.44 104.173 110.453 104.76 112.48C104.973 113.173 105.08 113.84 105.08 114.48C105.08 116.08 104.467 117.573 103.24 118.96C101.533 120.987 99 122 95.64 122C91.4267 122 87.3733 120.773 83.48 118.32C81.2933 116.987 79.6933 115.947 78.68 115.2C77.72 114.453 75.9867 113.12 73.48 111.2C70.1733 113.28 66.52 114.32 62.52 114.32C56.6 114.32 52.76 112.827 51 109.84C50.52 108.933 50.28 108 50.28 107.04C50.28 106.027 50.7067 104.987 51.56 103.92C52.8933 102.267 54.8133 101.44 57.32 101.44C61.32 101.44 66.3067 103.6 72.28 107.92C74.68 105.467 76.84 101.813 78.76 96.96C78.2267 97.0133 77.4533 97.04 76.44 97.04C67.7467 97.04 61.3733 93.5733 57.32 86.64C54.8667 82.3733 53.64 77.6533 53.64 72.48C53.64 70.72 53.7733 68.9333 54.04 67.12C55 60.3467 57.5067 55.1733 61.56 51.6C64.3333 49.2533 67.48 48.08 71 48.08C74.52 48.08 77.24 49.2267 79.16 51.52C81.08 53.8133 82.0933 56.64 82.2 60C82.2 60.48 81.9333 60.88 81.4 61.2C80.8667 61.4667 80.3333 61.5467 79.8 61.44C79.2667 61.28 79 60.9333 79 60.4C78.8933 57.2 78.2533 54.6667 77.08 52.8C75.9067 50.88 73.8 49.92 70.76 49.92C65.96 49.92 62.0933 52.56 59.16 57.84C56.8133 62 55.64 66.5867 55.64 71.6C55.64 80.7733 58.6 87.4133 64.52 91.52C67.7733 93.8133 71.72 94.96 76.36 94.96C77.4267 94.96 78.52 94.88 79.64 94.72C80.8667 91.4133 82.1733 87.0933 83.56 81.76C84.9467 76.3733 86.1733 71.7067 87.24 67.76C88.36 63.76 89.6667 59.7867 91.16 55.84C94.2533 47.6267 98.5467 43.52 104.04 43.52ZM103.16 45.84C99.4267 45.84 96.5733 49.44 94.6 56.64C93.64 60.1067 92.7867 63.68 92.04 67.36C89.8533 78.6133 87.8267 87.0133 85.96 92.56C92.52 89.2 97.88 82.9067 102.04 73.68C105.4 66.32 107.053 59.5467 107 53.36C106.84 48.4533 105.56 45.9467 103.16 45.84ZM70.84 109.28C65.6133 105.387 61.1067 103.44 57.32 103.44C54.92 103.44 53.4 104.293 52.76 106C52.0667 107.653 52.7867 109.227 54.92 110.72C56.52 111.84 58.9467 112.4 62.2 112.4C65.4533 112.4 68.3333 111.36 70.84 109.28Z" fill="#3F51B5"/>
<defs>
<filter id="filter0_d" x="0" y="0" width="169" height="169" filterUnits="userSpaceOnUse" color-interpolation-filters="sRGB">
<feFlood flood-opacity="0" result="BackgroundImageFix"/>
<feColorMatrix in="SourceAlpha" type="matrix" values="0 0 0 0 0 0 0 0 0 0 0 0 0 0 0 0 0 0 127 0"/>
<feOffset dx="1" dy="1"/>
<feGaussianBlur stdDeviation="2"/>
<feColorMatrix type="matrix" values="0 0 0 0 0 0 0 0 0 0 0 0 0 0 0 0 0 0 0.25 0"/>
<feBlend mode="normal" in2="BackgroundImageFix" result="effect1_dropShadow"/>
<feBlend mode="normal" in="SourceGraphic" in2="effect1_dropShadow" result="shape"/>
</filter>
</defs>
</svg>
